<svg width="189.844" height="63.867" viewBox="0 0 189.844 63.867" xmlns="http://www.w3.org/2000/svg"><g id="svgGroup" stroke-linecap="round" fill-rule="evenodd" font-size="9pt" stroke="#000" stroke-width="0.25mm" fill="#000" style="stroke:#000;stroke-width:0.25mm;fill:#000"><path d="M 56.25 63.867 L 0 63.867 L 0 0 L 10.547 0 L 10.547 14.063 L 56.25 14.063 L 56.25 24.609 L 10.547 24.609 L 10.547 53.32 L 56.25 53.32 L 56.25 63.867 Z M 189.844 63.867 L 133.594 63.867 L 133.594 14.063 L 189.844 14.063 L 189.844 24.609 L 144.141 24.609 L 144.141 53.32 L 189.844 53.32 L 189.844 63.867 Z M 123.047 63.867 L 66.797 63.867 L 66.797 47.754 L 95.605 24.609 L 66.797 24.609 L 66.797 14.063 L 123.047 14.063 L 123.047 63.867 Z M 112.5 24.609 L 76.758 53.32 L 112.5 53.32 L 112.5 24.609 Z" vector-effect="non-scaling-stroke"/></g></svg>