<svg width="144.141" height="63.867" viewBox="0 0 144.141 63.867" xmlns="http://www.w3.org/2000/svg"><g id="svgGroup" stroke-linecap="round" fill-rule="evenodd" font-size="9pt" stroke="#000" stroke-width="0.25mm" fill="#000" style="stroke:#000;stroke-width:0.25mm;fill:#000"><path d="M 56.25 63.867 L 0 63.867 L 0 0 L 10.547 0 L 10.547 14.063 L 56.25 14.063 L 56.25 24.609 L 10.547 24.609 L 10.547 53.32 L 56.25 53.32 L 56.25 63.867 Z M 144.141 63.867 L 87.891 63.867 L 87.891 14.063 L 144.141 14.063 L 144.141 24.609 L 98.438 24.609 L 98.438 53.32 L 144.141 53.32 L 144.141 63.867 Z M 77.344 63.867 L 66.797 63.867 L 66.797 14.063 L 77.344 14.063 L 77.344 63.867 Z M 77.344 8.789 L 66.797 8.789 L 66.797 0 L 77.344 0 L 77.344 8.789 Z" vector-effect="non-scaling-stroke"/></g></svg>